Agency_FB-Bold.ufo
<glyph name="quotedbl" format="1">
  <advance width="345"/>
  <unicode hex="0022"/>
  <outline>
    <contour>
      <point x="308" y="764" type="line"/>
      <point x="287" y="525" type="line"/>
      <point x="218" y="525" type="line"/>
      <point x="197" y="764" type="line"/>
    </contour>
    <contour>
      <point x="148" y="764" type="line"/>
      <point x="126" y="525" type="line"/>
      <point x="58" y="525" type="line"/>
      <point x="36" y="764" type="line"/>
    </contour>
  </outline>
</glyph>
<glyph name="numbersign" format="1">
  <advance width="542"/>
  <unicode hex="0023"/>
  <outline>
    <contour>
      <point x="520" y="478" type="line"/>
      <point x="428" y="478" type="line"/>
      <point x="397" y="284" type="line"/>
      <point x="485" y="284" type="line"/>
      <point x="485" y="191" type="line"/>
      <point x="382" y="191" type="line"/>
      <point x="351" y="0" type="line"/>
      <point x="250" y="0" type="line"/>
      <point x="281" y="191" type="line"/>
      <point x="200" y="191" type="line"/>
      <point x="170" y="0" type="line"/>
      <point x="68" y="0" type="line"/>
      <point x="99" y="191" type="line"/>
      <point x="23" y="191" type="line"/>
      <point x="23" y="284" type="line"/>
      <point x="114" y="284" type="line"/>
      <point x="145" y="478" type="line"/>
      <point x="58" y="478" type="line"/>
      <point x="58" y="571" type="line"/>
      <point x="160" y="571" type="line"/>
      <point x="191" y="764" type="line"/>
      <point x="292" y="764" type="line"/>
      <point x="261" y="571" type="line"/>
      <point x="342" y="571" type="line"/>
      <point x="373" y="764" type="line"/>
      <point x="475" y="764" type="line"/>
      <point x="443" y="571" type="line"/>
      <point x="520" y="571" type="line"/>
    </contour>
    <contour>
      <point x="327" y="478" type="line"/>
      <point x="246" y="478" type="line"/>
      <point x="215" y="284" type="line"/>
      <point x="296" y="284" type="line"/>
    </contour>
  </outline>
</glyph>
<glyph name="quotesingle" format="1">
  <advance width="184"/>
  <unicode hex="0027"/>
  <outline>
    <contour>
      <point x="148" y="764" type="line"/>
      <point x="126" y="525" type="line"/>
      <point x="58" y="525" type="line"/>
      <point x="36" y="764" type="line"/>
    </contour>
  </outline>
</glyph>
<glyph name="seven" format="1">
  <advance width="431"/>
  <unicode hex="0037"/>
  <outline>
    <contour>
      <point x="407" y="691" type="line"/>
      <point x="231" y="0" type="line"/>
      <point x="114" y="0" type="line"/>
      <point x="285" y="666" type="line"/>
      <point x="139" y="666" type="line"/>
      <point x="139" y="554" type="line"/>
      <point x="29" y="554" type="line"/>
      <point x="29" y="764" type="line"/>
      <point x="407" y="764" type="line"/>
    </contour>
  </outline>
</glyph>
<glyph name="E" format="1">
  <advance width="395"/>
  <unicode hex="0045"/>
  <outline>
    <contour>
      <point x="363" y="0" type="line"/>
      <point x="46" y="0" type="line"/>
      <point x="46" y="764" type="line"/>
      <point x="360" y="764" type="line"/>
      <point x="360" y="663" type="line"/>
      <point x="160" y="663" type="line"/>
      <point x="160" y="440" type="line"/>
      <point x="332" y="440" type="line"/>
      <point x="332" y="341" type="line"/>
      <point x="160" y="341" type="line"/>
      <point x="160" y="101" type="line"/>
      <point x="363" y="101" type="line"/>
    </contour>
    <contour>
      <point x="204" y="764" type="move" name="top"/>
    </contour>
    <contour>
      <point x="363" y="5" type="move" name="ogonek"/>
    </contour>
  </outline>
</glyph>
<glyph name="G" format="1">
  <advance width="469"/>
  <unicode hex="0047"/>
  <outline>
    <contour>
      <point x="424" y="70" type="line" smooth="yes"/>
      <point x="424" y="25"/>
      <point x="399" y="0"/>
      <point x="354" y="0" type="curve" smooth="yes"/>
      <point x="114" y="0" type="line" smooth="yes"/>
      <point x="70" y="0"/>
      <point x="46" y="25"/>
      <point x="46" y="70" type="curve" smooth="yes"/>
      <point x="46" y="694" type="line" smooth="yes"/>
      <point x="46" y="739"/>
      <point x="70" y="764"/>
      <point x="115" y="764" type="curve" smooth="yes"/>
      <point x="354" y="764" type="line" smooth="yes"/>
      <point x="399" y="764"/>
      <point x="424" y="739"/>
      <point x="424" y="694" type="curve" smooth="yes"/>
      <point x="424" y="531" type="line"/>
      <point x="309" y="531" type="line"/>
      <point x="309" y="666" type="line"/>
      <point x="160" y="666" type="line"/>
      <point x="160" y="98" type="line"/>
      <point x="309" y="98" type="line"/>
      <point x="309" y="312" type="line"/>
      <point x="224" y="312" type="line"/>
      <point x="224" y="409" type="line"/>
      <point x="424" y="409" type="line"/>
    </contour>
    <contour>
      <point x="234.5" y="764" type="move" name="top"/>
    </contour>
    <contour>
      <point x="234" y="0" type="move" name="bottom"/>
    </contour>
  </outline>
</glyph>
<glyph name="I" format="1">
  <advance width="210"/>
  <unicode hex="0049"/>
  <outline>
    <contour>
      <point x="162" y="0" type="line"/>
      <point x="48" y="0" type="line"/>
      <point x="48" y="764" type="line"/>
      <point x="162" y="764" type="line"/>
    </contour>
    <contour>
      <point x="105.0" y="764" type="move" name="top"/>
    </contour>
    <contour>
      <point x="157" y="5" type="move" name="ogonek"/>
    </contour>
  </outline>
</glyph>
<glyph name="K" format="1">
  <advance width="431"/>
  <unicode hex="004B"/>
  <outline>
    <contour>
      <point x="431" y="0" type="line"/>
      <point x="305" y="0" type="line"/>
      <point x="160" y="341" type="line"/>
      <point x="160" y="0" type="line"/>
      <point x="46" y="0" type="line"/>
      <point x="46" y="764" type="line"/>
      <point x="160" y="764" type="line"/>
      <point x="160" y="441" type="line"/>
      <point x="287" y="764" type="line"/>
      <point x="412" y="764" type="line"/>
      <point x="412" y="759" type="line"/>
      <point x="257" y="396" type="line"/>
      <point x="431" y="5" type="line"/>
    </contour>
    <contour>
      <point x="215" y="0" type="move" name="bottom"/>
    </contour>
  </outline>
</glyph>
<glyph name="R" format="1">
  <advance width="461"/>
  <unicode hex="0052"/>
  <outline>
    <contour>
      <point x="437" y="0" type="line"/>
      <point x="318" y="0" type="line"/>
      <point x="192" y="355" type="line"/>
      <point x="192" y="424" type="line"/>
      <point x="304" y="424" type="line"/>
      <point x="304" y="666" type="line"/>
      <point x="160" y="666" type="line"/>
      <point x="160" y="0" type="line"/>
      <point x="46" y="0" type="line"/>
      <point x="46" y="764" type="line"/>
      <point x="349" y="764" type="line" smooth="yes"/>
      <point x="394" y="764"/>
      <point x="418" y="739"/>
      <point x="418" y="694" type="curve" smooth="yes"/>
      <point x="418" y="416" type="line" smooth="yes"/>
      <point x="418" y="371"/>
      <point x="394" y="346"/>
      <point x="350" y="346" type="curve" smooth="yes"/>
      <point x="311" y="346" type="line"/>
      <point x="437" y="4" type="line"/>
    </contour>
    <contour>
      <point x="230.5" y="764.0" type="move" name="top"/>
    </contour>
    <contour>
      <point x="230" y="0" type="move" name="bottom"/>
    </contour>
  </outline>
</glyph>
<glyph name="T" format="1">
  <advance width="390"/>
  <unicode hex="0054"/>
  <outline>
    <contour>
      <point x="378" y="663" type="line"/>
      <point x="252" y="663" type="line"/>
      <point x="252" y="0" type="line"/>
      <point x="138" y="0" type="line"/>
      <point x="138" y="663" type="line"/>
      <point x="13" y="663" type="line"/>
      <point x="13" y="764" type="line"/>
      <point x="378" y="764" type="line"/>
    </contour>
    <contour>
      <point x="195.0" y="0" type="move" name="bottom"/>
    </contour>
    <contour>
      <point x="195.0" y="764" type="move" name="top"/>
    </contour>
  </outline>
</glyph>
<glyph name="V" format="1">
  <advance width="445"/>
  <unicode hex="0056"/>
  <outline>
    <contour>
      <point x="426" y="762" type="line"/>
      <point x="280" y="-1" type="line"/>
      <point x="166" y="-1" type="line"/>
      <point x="20" y="762" type="line"/>
      <point x="20" y="764" type="line"/>
      <point x="135" y="764" type="line"/>
      <point x="220" y="240" type="line"/>
      <point x="223" y="175" type="line"/>
      <point x="226" y="240" type="line"/>
      <point x="312" y="764" type="line"/>
      <point x="426" y="764" type="line"/>
    </contour>
  </outline>
</glyph>
<glyph name="X" format="1">
  <advance width="440"/>
  <unicode hex="0058"/>
  <outline>
    <contour>
      <point x="427" y="0" type="line"/>
      <point x="303" y="0" type="line"/>
      <point x="219" y="269" type="line"/>
      <point x="135" y="0" type="line"/>
      <point x="13" y="0" type="line"/>
      <point x="13" y="4" type="line"/>
      <point x="156" y="391" type="line"/>
      <point x="22" y="760" type="line"/>
      <point x="22" y="764" type="line"/>
      <point x="144" y="764" type="line"/>
      <point x="220" y="515" type="line"/>
      <point x="297" y="764" type="line"/>
      <point x="418" y="764" type="line"/>
      <point x="418" y="760" type="line"/>
      <point x="284" y="394" type="line"/>
      <point x="427" y="4" type="line"/>
    </contour>
  </outline>
</glyph>
<glyph name="Z" format="1">
  <advance width="390"/>
  <unicode hex="005A"/>
  <outline>
    <contour>
      <point x="370" y="0" type="line"/>
      <point x="19" y="0" type="line"/>
      <point x="19" y="61" type="line"/>
      <point x="233" y="661" type="line"/>
      <point x="36" y="661" type="line"/>
      <point x="36" y="764" type="line"/>
      <point x="369" y="764" type="line"/>
      <point x="369" y="698" type="line"/>
      <point x="156" y="103" type="line"/>
      <point x="370" y="103" type="line"/>
    </contour>
    <contour>
      <point x="195.0" y="764" type="move" name="top"/>
    </contour>
  </outline>
</glyph>
<glyph name="bracketleft" format="1">
  <advance width="294"/>
  <unicode hex="005B"/>
  <outline>
    <contour>
      <point x="259" y="-121" type="line"/>
      <point x="113" y="-121" type="line" smooth="yes"/>
      <point x="69" y="-121"/>
      <point x="46" y="-98"/>
      <point x="46" y="-54" type="curve" smooth="yes"/>
      <point x="46" y="698" type="line" smooth="yes"/>
      <point x="46" y="741"/>
      <point x="70" y="764"/>
      <point x="113" y="764" type="curve" smooth="yes"/>
      <point x="259" y="764" type="line"/>
      <point x="259" y="662" type="line"/>
      <point x="158" y="662" type="line"/>
      <point x="158" y="-19" type="line"/>
      <point x="259" y="-19" type="line"/>
    </contour>
  </outline>
</glyph>
<glyph name="asciicircum" format="1">
  <advance width="417"/>
  <unicode hex="005E"/>
  <outline>
    <contour>
      <point x="379" y="494" type="line"/>
      <point x="289" y="494" type="line"/>
      <point x="208" y="646" type="line"/>
      <point x="127" y="494" type="line"/>
      <point x="38" y="494" type="line"/>
      <point x="38" y="500" type="line"/>
      <point x="160" y="764" type="line"/>
      <point x="259" y="764" type="line"/>
      <point x="379" y="500" type="line"/>
    </contour>
  </outline>
</glyph>
<glyph name="b" format="1">
  <advance width="409"/>
  <unicode hex="0062"/>
  <outline>
    <contour>
      <point x="369" y="99" type="line" smooth="yes"/>
      <point x="369" y="39"/>
      <point x="331" y="0"/>
      <point x="267" y="0" type="curve" smooth="yes"/>
      <point x="40" y="0" type="line"/>
      <point x="40" y="764" type="line"/>
      <point x="152" y="764" type="line"/>
      <point x="152" y="475" type="line"/>
      <point x="272" y="491" type="line"/>
      <point x="284" y="494"/>
      <point x="297" y="495"/>
      <point x="308" y="495" type="curve" smooth="yes"/>
      <point x="349" y="495"/>
      <point x="369" y="474"/>
      <point x="369" y="435" type="curve" smooth="yes"/>
    </contour>
    <contour>
      <point x="257" y="130" type="curve" smooth="yes"/>
      <point x="257" y="400" type="line"/>
      <point x="152" y="398" type="line"/>
      <point x="152" y="93" type="line"/>
      <point x="221" y="93" type="line" smooth="yes"/>
      <point x="246" y="93"/>
      <point x="257" y="106"/>
    </contour>
  </outline>
</glyph>
<glyph name="e" format="1">
  <advance width="400"/>
  <unicode hex="0065"/>
  <outline>
    <contour>
      <point x="359" y="61" type="line" smooth="yes"/>
      <point x="359" y="20"/>
      <point x="338" y="0"/>
      <point x="296" y="0" type="curve" smooth="yes"/>
      <point x="103" y="0" type="line" smooth="yes"/>
      <point x="60" y="0"/>
      <point x="40" y="20"/>
      <point x="40" y="61" type="curve" smooth="yes"/>
      <point x="40" y="432" type="line" smooth="yes"/>
      <point x="40" y="473"/>
      <point x="60" y="493"/>
      <point x="103" y="493" type="curve" smooth="yes"/>
      <point x="296" y="493" type="line" smooth="yes"/>
      <point x="338" y="493"/>
      <point x="359" y="473"/>
      <point x="359" y="432" type="curve" smooth="yes"/>
      <point x="359" y="251" type="line"/>
      <point x="328" y="220" type="line"/>
      <point x="147" y="220" type="line"/>
      <point x="147" y="82" type="line"/>
      <point x="252" y="82" type="line"/>
      <point x="252" y="164" type="line"/>
      <point x="359" y="164" type="line"/>
    </contour>
    <contour>
      <point x="252" y="293" type="line"/>
      <point x="252" y="411" type="line"/>
      <point x="147" y="411" type="line"/>
      <point x="147" y="293" type="line"/>
    </contour>
    <contour>
      <point x="200.0" y="493" type="move" name="top"/>
    </contour>
    <contour>
      <point x="323" y="5" type="move" name="ogonek"/>
    </contour>
  </outline>
</glyph>
<glyph name="g" format="1">
  <advance width="408"/>
  <unicode hex="0067"/>
  <outline>
    <contour>
      <point x="367" y="-119" type="line" smooth="yes"/>
      <point x="367" y="-160"/>
      <point x="347" y="-180"/>
      <point x="304" y="-180" type="curve" smooth="yes"/>
      <point x="110" y="-180" type="line" smooth="yes"/>
      <point x="67" y="-180"/>
      <point x="47" y="-160"/>
      <point x="47" y="-119" type="curve" smooth="yes"/>
      <point x="47" y="-40" type="line"/>
      <point x="155" y="-40" type="line"/>
      <point x="155" y="-99" type="line"/>
      <point x="256" y="-99" type="line"/>
      <point x="256" y="3" type="line"/>
      <point x="141" y="3" type="line" smooth="yes"/>
      <point x="77" y="3"/>
      <point x="39" y="42"/>
      <point x="39" y="102" type="curve" smooth="yes"/>
      <point x="39" y="404" type="line" smooth="yes"/>
      <point x="39" y="461"/>
      <point x="73" y="495"/>
      <point x="129" y="495" type="curve" smooth="yes"/>
      <point x="142" y="495"/>
      <point x="158" y="493"/>
      <point x="171" y="491" type="curve" smooth="yes"/>
      <point x="256" y="475" type="line"/>
      <point x="256" y="493" type="line"/>
      <point x="367" y="493" type="line"/>
    </contour>
    <contour>
      <point x="256" y="93" type="line"/>
      <point x="256" y="396" type="line"/>
      <point x="209" y="401" type="line" smooth="yes"/>
      <point x="203" y="402"/>
      <point x="192" y="402"/>
      <point x="186" y="402" type="curve" smooth="yes"/>
      <point x="161" y="402"/>
      <point x="150" y="389"/>
      <point x="150" y="366" type="curve" smooth="yes"/>
      <point x="150" y="130" type="line" smooth="yes"/>
      <point x="150" y="105"/>
      <point x="161" y="93"/>
      <point x="187" y="93" type="curve" smooth="yes"/>
    </contour>
    <contour>
      <point x="204.0" y="493" type="move" name="top"/>
    </contour>
  </outline>
</glyph>
<glyph name="i" format="1">
  <advance width="196"/>
  <unicode hex="0069"/>
  <outline>
    <contour>
      <point x="154" y="564" type="line"/>
      <point x="42" y="564" type="line"/>
      <point x="42" y="679" type="line"/>
      <point x="154" y="679" type="line"/>
    </contour>
    <contour>
      <point x="153" y="0" type="line"/>
      <point x="43" y="0" type="line"/>
      <point x="43" y="493" type="line"/>
      <point x="153" y="493" type="line"/>
    </contour>
    <contour>
      <point x="150" y="4" type="move" name="ogonek"/>
    </contour>
  </outline>
</glyph>
<glyph name="l" format="1">
  <advance width="196"/>
  <unicode hex="006C"/>
  <outline>
    <contour>
      <point x="153" y="0" type="line"/>
      <point x="43" y="0" type="line"/>
      <point x="43" y="764" type="line"/>
      <point x="153" y="764" type="line"/>
    </contour>
    <contour>
      <point x="195" y="525" type="move" name="caron.vert"/>
    </contour>
    <contour>
      <point x="98.0" y="0" type="move" name="bottom"/>
    </contour>
    <contour>
      <point x="98" y="764" type="move" name="top"/>
    </contour>
  </outline>
</glyph>
<glyph name="n" format="1">
  <advance width="409"/>
  <unicode hex="006E"/>
  <outline>
    <contour>
      <point x="369" y="0" type="line"/>
      <point x="257" y="0" type="line"/>
      <point x="257" y="400" type="line"/>
      <point x="152" y="398" type="line"/>
      <point x="152" y="0" type="line"/>
      <point x="40" y="0" type="line"/>
      <point x="40" y="493" type="line"/>
      <point x="152" y="493" type="line"/>
      <point x="152" y="475" type="line"/>
      <point x="270" y="491" type="line" smooth="yes"/>
      <point x="283" y="493"/>
      <point x="297" y="495"/>
      <point x="308" y="495" type="curve" smooth="yes"/>
      <point x="348" y="495"/>
      <point x="369" y="474"/>
      <point x="369" y="435" type="curve" smooth="yes"/>
    </contour>
    <contour>
      <point x="204.5" y="0" type="move" name="bottom"/>
    </contour>
    <contour>
      <point x="204.5" y="493" type="move" name="top"/>
    </contour>
  </outline>
</glyph>
<glyph name="p" format="1">
  <advance width="408"/>
  <unicode hex="0070"/>
  <outline>
    <contour>
      <point x="369" y="99" type="line" smooth="yes"/>
      <point x="369" y="39"/>
      <point x="331" y="0"/>
      <point x="266" y="0" type="curve" smooth="yes"/>
      <point x="152" y="0" type="line"/>
      <point x="152" y="-180" type="line"/>
      <point x="40" y="-180" type="line"/>
      <point x="40" y="493" type="line"/>
      <point x="152" y="493" type="line"/>
      <point x="152" y="475" type="line"/>
      <point x="272" y="491" type="line"/>
      <point x="284" y="494"/>
      <point x="297" y="495"/>
      <point x="308" y="495" type="curve" smooth="yes"/>
      <point x="348" y="495"/>
      <point x="369" y="474"/>
      <point x="369" y="435" type="curve" smooth="yes"/>
    </contour>
    <contour>
      <point x="257" y="130" type="curve" smooth="yes"/>
      <point x="257" y="400" type="line"/>
      <point x="152" y="398" type="line"/>
      <point x="152" y="93" type="line"/>
      <point x="221" y="93" type="line" smooth="yes"/>
      <point x="247" y="93"/>
      <point x="257" y="105"/>
    </contour>
  </outline>
</glyph>
<glyph name="s" format="1">
  <advance width="388"/>
  <unicode hex="0073"/>
  <outline>
    <contour>
      <point x="350" y="61" type="line" smooth="yes"/>
      <point x="350" y="20"/>
      <point x="330" y="0"/>
      <point x="288" y="0" type="curve" smooth="yes"/>
      <point x="100" y="0" type="line" smooth="yes"/>
      <point x="58" y="0"/>
      <point x="38" y="20"/>
      <point x="38" y="61" type="curve" smooth="yes"/>
      <point x="38" y="167" type="line"/>
      <point x="145" y="167" type="line"/>
      <point x="145" y="84" type="line"/>
      <point x="243" y="84" type="line"/>
      <point x="243" y="162" type="line"/>
      <point x="72" y="263" type="line" smooth="yes"/>
      <point x="50" y="276"/>
      <point x="38" y="289"/>
      <point x="38" y="317" type="curve" smooth="yes"/>
      <point x="38" y="432" type="line" smooth="yes"/>
      <point x="38" y="473"/>
      <point x="58" y="493"/>
      <point x="101" y="493" type="curve" smooth="yes"/>
      <point x="287" y="493" type="line" smooth="yes"/>
      <point x="329" y="493"/>
      <point x="349" y="473"/>
      <point x="349" y="432" type="curve" smooth="yes"/>
      <point x="349" y="333" type="line"/>
      <point x="243" y="333" type="line"/>
      <point x="243" y="409" type="line"/>
      <point x="145" y="409" type="line"/>
      <point x="145" y="338" type="line"/>
      <point x="316" y="238" type="line" smooth="yes"/>
      <point x="337" y="226"/>
      <point x="350" y="212"/>
      <point x="350" y="183" type="curve" smooth="yes"/>
    </contour>
    <contour>
      <point x="194.0" y="493" type="move" name="top"/>
    </contour>
    <contour>
      <point x="194.0" y="0" type="move" name="bottom"/>
    </contour>
  </outline>
</glyph>
<glyph name="bar" format="1">
  <advance width="210"/>
  <unicode hex="007C"/>
  <outline>
    <contour>
      <point x="160" y="-176" type="line"/>
      <point x="50" y="-176" type="line"/>
      <point x="50" y="764" type="line"/>
      <point x="160" y="764" type="line"/>
    </contour>
  </outline>
</glyph>
<glyph name="asciitilde" format="1">
  <advance width="506"/>
  <unicode hex="007E"/>
  <outline>
    <contour>
      <point x="443" y="266" type="line" smooth="yes"/>
      <point x="443" y="229"/>
      <point x="421" y="206"/>
      <point x="386" y="206" type="curve" smooth="yes"/>
      <point x="365" y="206"/>
      <point x="344" y="212"/>
      <point x="322" y="221" type="curve" smooth="yes"/>
      <point x="160" y="286" type="line"/>
      <point x="160" y="209" type="line"/>
      <point x="63" y="209" type="line"/>
      <point x="63" y="331" type="line" smooth="yes"/>
      <point x="63" y="366"/>
      <point x="84" y="390"/>
      <point x="120" y="390" type="curve" smooth="yes"/>
      <point x="140" y="390"/>
      <point x="161" y="384"/>
      <point x="183" y="375" type="curve" smooth="yes"/>
      <point x="345" y="310" type="line"/>
      <point x="345" y="387" type="line"/>
      <point x="443" y="387" type="line"/>
    </contour>
  </outline>
</glyph>
<glyph name="exclamdown" format="1">
  <advance width="214"/>
  <unicode hex="00A1"/>
  <outline>
    <contour>
      <point x="163" y="647" type="line"/>
      <point x="50" y="647" type="line"/>
      <point x="50" y="764" type="line"/>
      <point x="163" y="764" type="line"/>
    </contour>
    <contour>
      <point x="168" y="0" type="line"/>
      <point x="46" y="0" type="line"/>
      <point x="62" y="586" type="line"/>
      <point x="152" y="586" type="line"/>
    </contour>
  </outline>
</glyph>
<glyph name="yen" format="1">
  <advance width="443"/>
  <unicode hex="00A5"/>
  <outline>
    <contour>
      <point x="430" y="760" type="line"/>
      <point x="342" y="481" type="line"/>
      <point x="419" y="481" type="line"/>
      <point x="419" y="390" type="line"/>
      <point x="313" y="390" type="line"/>
      <point x="291" y="318" type="line"/>
      <point x="419" y="318" type="line"/>
      <point x="419" y="226" type="line"/>
      <point x="279" y="226" type="line"/>
      <point x="279" y="0" type="line"/>
      <point x="164" y="0" type="line"/>
      <point x="164" y="226" type="line"/>
      <point x="25" y="226" type="line"/>
      <point x="25" y="318" type="line"/>
      <point x="152" y="318" type="line"/>
      <point x="130" y="390" type="line"/>
      <point x="25" y="390" type="line"/>
      <point x="25" y="481" type="line"/>
      <point x="101" y="481" type="line"/>
      <point x="13" y="760" type="line"/>
      <point x="13" y="764" type="line"/>
      <point x="131" y="764" type="line"/>
      <point x="222" y="432" type="line"/>
      <point x="313" y="764" type="line"/>
      <point x="430" y="764" type="line"/>
    </contour>
  </outline>
</glyph>
<glyph name="acute" format="1">
  <advance width="408"/>
  <unicode hex="00B4"/>
  <outline>
    <contour>
      <point x="295" y="655" type="line"/>
      <point x="153" y="526" type="line"/>
      <point x="71" y="526" type="line"/>
      <point x="71" y="530" type="line"/>
      <point x="155" y="659" type="line"/>
      <point x="295" y="659" type="line"/>
    </contour>
  </outline>
</glyph>
<glyph name="ordmasculine" format="1">
  <advance width="349"/>
  <unicode hex="00BA"/>
  <outline>
    <contour>
      <point x="307" y="423" type="line" smooth="yes"/>
      <point x="307" y="389"/>
      <point x="290" y="374"/>
      <point x="256" y="374" type="curve" smooth="yes"/>
      <point x="94" y="374" type="line" smooth="yes"/>
      <point x="58" y="374"/>
      <point x="42" y="389"/>
      <point x="42" y="423" type="curve" smooth="yes"/>
      <point x="42" y="716" type="line" smooth="yes"/>
      <point x="42" y="749"/>
      <point x="58" y="764"/>
      <point x="94" y="764" type="curve" smooth="yes"/>
      <point x="256" y="764" type="line" smooth="yes"/>
      <point x="290" y="764"/>
      <point x="307" y="749"/>
      <point x="307" y="716" type="curve" smooth="yes"/>
    </contour>
    <contour>
      <point x="307" y="250" type="line"/>
      <point x="42" y="250" type="line"/>
      <point x="42" y="325" type="line"/>
      <point x="307" y="325" type="line"/>
    </contour>
    <contour>
      <point x="216" y="447" type="line"/>
      <point x="216" y="691" type="line"/>
      <point x="132" y="691" type="line"/>
      <point x="132" y="447" type="line"/>
    </contour>
  </outline>
</glyph>
<glyph name="germandbls" format="1">
  <advance width="412"/>
  <unicode hex="00DF"/>
  <outline>
    <contour>
      <point x="371" y="67" type="line" smooth="yes"/>
      <point x="371" y="22"/>
      <point x="350" y="0"/>
      <point x="304" y="0" type="curve" smooth="yes"/>
      <point x="197" y="0" type="line"/>
      <point x="197" y="88" type="line"/>
      <point x="261" y="88" type="line"/>
      <point x="261" y="313" type="line"/>
      <point x="194" y="380" type="line"/>
      <point x="194" y="418" type="line"/>
      <point x="258" y="482" type="line"/>
      <point x="258" y="630" type="line" smooth="yes"/>
      <point x="258" y="657"/>
      <point x="245" y="671"/>
      <point x="217" y="671" type="curve" smooth="yes"/>
      <point x="152" y="671" type="line"/>
      <point x="152" y="0" type="line"/>
      <point x="40" y="0" type="line"/>
      <point x="40" y="764" type="line"/>
      <point x="250" y="764" type="line" smooth="yes"/>
      <point x="330" y="764"/>
      <point x="369" y="721"/>
      <point x="369" y="644" type="curve" smooth="yes"/>
      <point x="369" y="508" type="line" smooth="yes"/>
      <point x="369" y="472"/>
      <point x="365" y="459"/>
      <point x="337" y="434" type="curve" smooth="yes"/>
      <point x="299" y="399" type="line"/>
      <point x="342" y="362" type="line" smooth="yes"/>
      <point x="368" y="340"/>
      <point x="371" y="326"/>
      <point x="371" y="288" type="curve" smooth="yes"/>
    </contour>
  </outline>
</glyph>
<glyph name="OE" format="1">
  <advance width="646"/>
  <unicode hex="0152"/>
  <outline>
    <contour>
      <point x="614" y="0" type="line"/>
      <point x="115" y="0" type="line" smooth="yes"/>
      <point x="70" y="0"/>
      <point x="46" y="25"/>
      <point x="46" y="70" type="curve" smooth="yes"/>
      <point x="46" y="694" type="line" smooth="yes"/>
      <point x="46" y="739"/>
      <point x="70" y="764"/>
      <point x="115" y="764" type="curve" smooth="yes"/>
      <point x="611" y="764" type="line"/>
      <point x="611" y="663" type="line"/>
      <point x="416" y="663" type="line"/>
      <point x="416" y="441" type="line"/>
      <point x="583" y="441" type="line"/>
      <point x="583" y="341" type="line"/>
      <point x="416" y="341" type="line"/>
      <point x="416" y="101" type="line"/>
      <point x="614" y="101" type="line"/>
    </contour>
    <contour>
      <point x="303" y="98" type="line"/>
      <point x="303" y="666" type="line"/>
      <point x="160" y="666" type="line"/>
      <point x="160" y="98" type="line"/>
    </contour>
  </outline>
</glyph>
<glyph name="dotlessj" format="1">
  <advance width="196"/>
  <unicode hex="0237"/>
  <outline>
    <contour>
      <point x="153" y="-119" type="line" smooth="yes"/>
      <point x="153" y="-160"/>
      <point x="134" y="-180"/>
      <point x="91" y="-180" type="curve" smooth="yes"/>
      <point x="-28" y="-180" type="line"/>
      <point x="-28" y="-87" type="line"/>
      <point x="43" y="-87" type="line"/>
      <point x="43" y="493" type="line"/>
      <point x="153" y="493" type="line"/>
    </contour>
    <contour>
      <point x="98.0" y="493" type="move" name="top"/>
    </contour>
  </outline>
</glyph>
<glyph name="circumflex" format="1">
  <advance width="408"/>
  <unicode hex="02C6"/>
  <outline>
    <contour>
      <point x="344" y="526" type="line"/>
      <point x="271" y="526" type="line"/>
      <point x="204" y="582" type="line"/>
      <point x="137" y="526" type="line"/>
      <point x="65" y="526" type="line"/>
      <point x="65" y="530" type="line"/>
      <point x="166" y="657" type="line"/>
      <point x="243" y="657" type="line"/>
      <point x="344" y="530" type="line"/>
    </contour>
  </outline>
</glyph>
<glyph name="breve" format="1">
  <advance width="408"/>
  <unicode hex="02D8"/>
  <outline>
    <contour>
      <point x="324" y="585" type="line" smooth="yes"/>
      <point x="324" y="546"/>
      <point x="304" y="526"/>
      <point x="265" y="526" type="curve" smooth="yes"/>
      <point x="144" y="526" type="line" smooth="yes"/>
      <point x="105" y="526"/>
      <point x="85" y="546"/>
      <point x="85" y="585" type="curve" smooth="yes"/>
      <point x="85" y="652" type="line"/>
      <point x="166" y="652" type="line"/>
      <point x="166" y="595" type="line"/>
      <point x="243" y="595" type="line"/>
      <point x="243" y="652" type="line"/>
      <point x="324" y="652" type="line"/>
    </contour>
  </outline>
</glyph>
<glyph name="acutecmb" format="1">
  <advance width="0"/>
  <unicode hex="0301"/>
  <outline>
    <contour>
      <point x="150" y="655" type="line"/>
      <point x="8" y="526" type="line"/>
      <point x="-74" y="526" type="line"/>
      <point x="-74" y="530" type="line"/>
      <point x="10" y="659" type="line"/>
      <point x="150" y="659" type="line"/>
    </contour>
    <contour>
      <point x="0" y="493" type="move" name="_top"/>
    </contour>
  </outline>
</glyph>
<glyph name="circumflexcmb" format="1">
  <advance width="0"/>
  <unicode hex="0302"/>
  <outline>
    <contour>
      <point x="140.0" y="526" type="line"/>
      <point x="67.0" y="526" type="line"/>
      <point x="0.0" y="582" type="line"/>
      <point x="-67.0" y="526" type="line"/>
      <point x="-139.0" y="526" type="line"/>
      <point x="-139.0" y="530" type="line"/>
      <point x="-38.0" y="657" type="line"/>
      <point x="39.0" y="657" type="line"/>
      <point x="140.0" y="530" type="line"/>
    </contour>
    <contour>
      <point x="0" y="493" type="move" name="_top"/>
    </contour>
  </outline>
</glyph>
<glyph name="dotaccentcmb" format="1">
  <advance width="0"/>
  <unicode hex="0307"/>
  <outline>
    <contour>
      <point x="55.0" y="526" type="line"/>
      <point x="-54.0" y="526" type="line"/>
      <point x="-54.0" y="635" type="line"/>
      <point x="55.0" y="635" type="line"/>
    </contour>
    <contour>
      <point x="0" y="493" type="move" name="_top"/>
    </contour>
  </outline>
</glyph>
<glyph name="dieresiscmb" format="1">
  <advance width="0"/>
  <unicode hex="0308"/>
  <outline>
    <contour>
      <point x="128.0" y="526" type="line"/>
      <point x="21.0" y="526" type="line"/>
      <point x="21.0" y="631" type="line"/>
      <point x="128.0" y="631" type="line"/>
    </contour>
    <contour>
      <point x="-21.0" y="526" type="line"/>
      <point x="-128.0" y="526" type="line"/>
      <point x="-128.0" y="631" type="line"/>
      <point x="-21.0" y="631" type="line"/>
    </contour>
    <contour>
      <point x="0" y="493" type="move" name="_top"/>
    </contour>
  </outline>
</glyph>
<glyph name="hungarumlautcmb" format="1">
  <advance width="0"/>
  <unicode hex="030B"/>
  <outline>
    <contour>
      <point x="229" y="653" type="line"/>
      <point x="97" y="526" type="line"/>
      <point x="28" y="526" type="line"/>
      <point x="28" y="530" type="line"/>
      <point x="106" y="656" type="line"/>
      <point x="229" y="656" type="line"/>
    </contour>
    <contour>
      <point x="76" y="653" type="line"/>
      <point x="-56" y="526" type="line"/>
      <point x="-125" y="526" type="line"/>
      <point x="-125" y="530" type="line"/>
      <point x="-47" y="656" type="line"/>
      <point x="76" y="656" type="line"/>
    </contour>
    <contour>
      <point x="0" y="493" type="move" name="_top"/>
    </contour>
  </outline>
</glyph>
<glyph name="commabelowcmb" format="1">
  <advance width="0"/>
  <unicode hex="0326"/>
  <outline>
    <contour>
      <point x="66" y="-20" type="line"/>
      <point x="9" y="-216" type="line"/>
      <point x="-65" y="-216" type="line"/>
      <point x="-51" y="-20" type="line"/>
    </contour>
    <contour>
      <point x="0" y="0" type="move" name="_bottom"/>
    </contour>
  </outline>
</glyph>
<glyph name="cedillacmb" format="1">
  <advance width="0"/>
  <unicode hex="0327"/>
  <outline>
    <contour>
      <point x="110" y="-142" type="line" smooth="yes"/>
      <point x="110" y="-174"/>
      <point x="94" y="-189"/>
      <point x="63" y="-189" type="curve" smooth="yes"/>
      <point x="-59" y="-189" type="line" smooth="yes"/>
      <point x="-91" y="-189"/>
      <point x="-106" y="-174"/>
      <point x="-106" y="-142" type="curve" smooth="yes"/>
      <point x="-106" y="-89" type="line"/>
      <point x="-30" y="-89" type="line"/>
      <point x="-30" y="-130" type="line"/>
      <point x="34" y="-130" type="line"/>
      <point x="34" y="-89" type="line"/>
      <point x="-9" y="-70" type="line" smooth="yes"/>
      <point x="-31" y="-60"/>
      <point x="-37" y="-50"/>
      <point x="-37" y="-24" type="curve" smooth="yes"/>
      <point x="-37" y="10" type="line"/>
      <point x="37" y="10" type="line"/>
      <point x="37" y="-20" type="line"/>
      <point x="82" y="-43" type="line" smooth="yes"/>
      <point x="106" y="-55"/>
      <point x="110" y="-64"/>
      <point x="110" y="-90" type="curve" smooth="yes"/>
    </contour>
    <contour>
      <point x="0" y="0" type="move" name="_bottom"/>
    </contour>
  </outline>
</glyph>
<glyph name="ogonekcmb" format="1">
  <advance width="0"/>
  <unicode hex="0328"/>
  <outline>
    <contour>
      <point x="40" y="-194" type="line"/>
      <point x="-127" y="-194" type="line" smooth="yes"/>
      <point x="-158" y="-194"/>
      <point x="-174" y="-179"/>
      <point x="-174" y="-147" type="curve" smooth="yes"/>
      <point x="-174" y="-95" type="line" smooth="yes"/>
      <point x="-174" y="-69"/>
      <point x="-167" y="-60"/>
      <point x="-152" y="-45" type="curve" smooth="yes"/>
      <point x="-99" y="5" type="line"/>
      <point x="0" y="5" type="line"/>
      <point x="0" y="0" type="line"/>
      <point x="-89" y="-86" type="line"/>
      <point x="-89" y="-129" type="line"/>
      <point x="40" y="-129" type="line"/>
    </contour>
    <contour>
      <point x="0" y="0" type="move" name="_ogonek"/>
    </contour>
  </outline>
</glyph>
<glyph name="Gamma" format="1">
  <advance width="377.35"/>
  <unicode hex="0393"/>
  <outline>
    <contour>
      <point x="357.85" y="663.0500000000001" type="line"/>
      <point x="159.60000000000002" y="663.0500000000001" type="line"/>
      <point x="159.60000000000002" y="0.0" type="line"/>
      <point x="45.7" y="0.0" type="line"/>
      <point x="45.7" y="764.0" type="line"/>
      <point x="357.85" y="764.0" type="line"/>
    </contour>
  </outline>
</glyph>
<glyph name="Delta" format="1">
  <advance width="457.6"/>
  <unicode hex="0394"/>
  <outline>
    <contour>
      <point x="228.7" y="587.75" type="line"/>
      <point x="129.75" y="0.0" type="line"/>
      <point x="30.35" y="0.0" type="line"/>
      <point x="30.35" y="68.1" type="line"/>
      <point x="169.25" y="765.1" type="line"/>
      <point x="289.8" y="765.1" type="line"/>
      <point x="427.70000000000005" y="68.1" type="line"/>
      <point x="427.70000000000005" y="0.0" type="line"/>
      <point x="327.65000000000003" y="0.0" type="line"/>
    </contour>
    <contour>
      <point x="100.45" y="98.25" type="line"/>
      <point x="362.45000000000005" y="98.25" type="line"/>
      <point x="369.65000000000003" y="0.0" type="line"/>
      <point x="90.55000000000001" y="0.0" type="line"/>
    </contour>
  </outline>
</glyph>
<glyph name="Lambda" format="1">
  <advance width="451.30000000000007"/>
  <unicode hex="039B"/>
  <outline>
    <contour>
      <point x="130.65" y="0.0" type="line"/>
      <point x="18.400000000000002" y="0.0" type="line"/>
      <point x="18.400000000000002" y="2.0" type="line"/>
      <point x="165.65" y="765.1" type="line"/>
      <point x="286.20000000000005" y="765.1" type="line"/>
      <point x="432.90000000000003" y="2.0" type="line"/>
      <point x="432.90000000000003" y="0.0" type="line"/>
      <point x="319.55000000000007" y="0.0" type="line"/>
      <point x="225.10000000000002" y="587.75" type="line"/>
    </contour>
  </outline>
</glyph>
<glyph name="Pi" format="1">
  <advance width="470.80000000000007"/>
  <unicode hex="03A0"/>
  <outline>
    <contour>
      <point x="425.1" y="0.0" type="line"/>
      <point x="310.75" y="0.0" type="line"/>
      <point x="310.75" y="658.5500000000001" type="line"/>
      <point x="159.60000000000002" y="658.5500000000001" type="line"/>
      <point x="159.60000000000002" y="0.0" type="line"/>
      <point x="45.7" y="0.0" type="line"/>
      <point x="45.7" y="764.0" type="line"/>
      <point x="425.1" y="764.0" type="line"/>
    </contour>
  </outline>
</glyph>
<glyph name="alpha" format="1">
  <advance width="408.05000000000007"/>
  <unicode hex="03B1"/>
  <outline>
    <contour>
      <point x="256.3" y="493.0" type="line"/>
      <point x="256.3" y="475.5" type="line"/>
      <point x="170.85000000000002" y="490.75" type="line" smooth="yes"/>
      <point x="157.15" y="493.65000000000003"/>
      <point x="141.4" y="495.1"/>
      <point x="128.60000000000002" y="495.1" type="curve" smooth="yes"/>
      <point x="73.0" y="495.1"/>
      <point x="39.3" y="461.05"/>
      <point x="39.3" y="403.40000000000003" type="curve" smooth="yes"/>
      <point x="39.3" y="89.60000000000001" type="line" smooth="yes"/>
      <point x="39.3" y="32.85"/>
      <point x="73.0" y="-2.5500000000000003"/>
      <point x="128.60000000000002" y="-2.5500000000000003" type="curve" smooth="yes"/>
      <point x="141.4" y="-2.5500000000000003"/>
      <point x="157.15" y="-0.20000000000000007"/>
      <point x="170.85000000000002" y="2.25" type="curve" smooth="yes"/>
      <point x="256.3" y="17.05" type="line"/>
      <point x="256.3" y="0.0" type="line"/>
      <point x="367.1" y="0.0" type="line"/>
      <point x="367.1" y="493.0" type="line"/>
    </contour>
    <contour>
      <point x="184.75" y="402.1" type="curve" smooth="yes"/>
      <point x="189.85000000000002" y="402.1"/>
      <point x="200.0" y="402.1"/>
      <point x="205.10000000000002" y="401.1" type="curve"/>
      <point x="256.3" y="395.75" type="line"/>
      <point x="256.3" y="96.35" type="line"/>
      <point x="205.10000000000002" y="91.9" type="line"/>
      <point x="200.0" y="90.9"/>
      <point x="189.85000000000002" y="90.9"/>
      <point x="184.75" y="90.9" type="curve" smooth="yes"/>
      <point x="161.8" y="90.9"/>
      <point x="150.10000000000002" y="104.35000000000001"/>
      <point x="150.10000000000002" y="126.55000000000001" type="curve" smooth="yes"/>
      <point x="150.10000000000002" y="366.45000000000005" type="line" smooth="yes"/>
      <point x="150.10000000000002" y="388.65000000000003"/>
      <point x="161.8" y="402.1"/>
    </contour>
  </outline>
</glyph>
<glyph name="beta" format="1">
  <advance width="408.05000000000007"/>
  <unicode hex="03B2"/>
  <outline>
    <contour>
      <point x="237.2" y="2.25" type="line" smooth="yes"/>
      <point x="250.0" y="-0.20000000000000007"/>
      <point x="267.55" y="-2.5500000000000003"/>
      <point x="279.0" y="-2.5500000000000003" type="curve" smooth="yes"/>
      <point x="334.6" y="-2.5500000000000003"/>
      <point x="368.75" y="32.4"/>
      <point x="368.75" y="88.70000000000002" type="curve" smooth="yes"/>
      <point x="368.75" y="288.15000000000003" type="line" smooth="yes"/>
      <point x="368.75" y="325.55"/>
      <point x="363.70000000000005" y="339.8"/>
      <point x="337.9" y="362.5" type="curve" smooth="yes"/>
      <point x="294.8" y="399.20000000000005" type="line"/>
      <point x="333.3" y="434.20000000000005" type="line" smooth="yes"/>
      <point x="360.0" y="459.6"/>
      <point x="361.45000000000005" y="471.6"/>
      <point x="361.45000000000005" y="508.45000000000005" type="curve" smooth="yes"/>
      <point x="361.45000000000005" y="665.6" type="line" smooth="yes"/>
      <point x="361.45000000000005" y="726.2"/>
      <point x="322.35" y="764.0"/>
      <point x="260.90000000000003" y="764.0" type="curve" smooth="yes"/>
      <point x="103.05000000000001" y="764.0" type="line" smooth="yes"/>
      <point x="57.45" y="764.0"/>
      <point x="40.400000000000006" y="741.45"/>
      <point x="40.400000000000006" y="701.6" type="curve" smooth="yes"/>
      <point x="40.400000000000006" y="-180.0" type="line"/>
      <point x="151.75" y="-180.0" type="line"/>
      <point x="151.75" y="17.05" type="line"/>
    </contour>
    <contour>
      <point x="201.95" y="91.9" type="curve" smooth="yes"/>
      <point x="147.25" y="96.80000000000001" type="line"/>
      <point x="147.25" y="671.45" type="line"/>
      <point x="219.15" y="671.45" type="line" smooth="yes"/>
      <point x="243.9" y="671.45"/>
      <point x="254.60000000000002" y="658.55"/>
      <point x="254.60000000000002" y="635.35" type="curve" smooth="yes"/>
      <point x="254.60000000000002" y="482.0" type="line"/>
      <point x="190.90000000000003" y="417.55" type="line"/>
      <point x="190.90000000000003" y="380.4" type="line"/>
      <point x="257.40000000000003" y="313.15000000000003" type="line"/>
      <point x="257.40000000000003" y="127.45" type="line" smooth="yes"/>
      <point x="257.40000000000003" y="104.35000000000001"/>
      <point x="246.15" y="90.9"/>
      <point x="222.75" y="90.9" type="curve" smooth="yes"/>
      <point x="217.20000000000002" y="90.9"/>
      <point x="207.5" y="91.45"/>
    </contour>
  </outline>
</glyph>
<glyph name="gamma" format="1">
  <advance width="388.85"/>
  <unicode hex="03B3"/>
  <outline>
    <contour>
      <point x="138.75" y="6.2" type="line"/>
      <point x="138.75" y="-180.0" type="line"/>
      <point x="250.10000000000002" y="-180.0" type="line"/>
      <point x="250.10000000000002" y="6.2" type="line"/>
      <point x="374.1" y="493.0" type="line"/>
      <point x="260.05" y="493.0" type="line"/>
      <point x="194.7" y="169.95000000000002" type="line"/>
      <point x="129.9" y="493.0" type="line"/>
      <point x="14.75" y="493.0" type="line"/>
    </contour>
  </outline>
</glyph>
<glyph name="delta" format="1">
  <advance width="400.6"/>
  <unicode hex="03B4"/>
  <outline>
    <contour>
      <point x="104.80000000000001" y="0.0" type="curve" smooth="yes"/>
      <point x="298.55000000000007" y="0.0" type="line"/>
      <point x="341.05" y="0.0"/>
      <point x="360.20000000000005" y="20.9"/>
      <point x="360.20000000000005" y="61.85000000000001" type="curve"/>
      <point x="360.20000000000005" y="431.4" type="line" smooth="yes"/>
      <point x="360.20000000000005" y="456.90000000000003"/>
      <point x="346.25" y="467.15000000000003"/>
      <point x="326.05" y="479.85" type="curve" smooth="yes"/>
      <point x="154.25" y="594.5" type="line"/>
      <point x="154.25" y="670.75" type="line"/>
      <point x="228.85000000000002" y="670.75" type="line" smooth="yes"/>
      <point x="243.7" y="670.75"/>
      <point x="249.45" y="665.45"/>
      <point x="249.45" y="650.25" type="curve" smooth="yes"/>
      <point x="249.45" y="592.1" type="line"/>
      <point x="355.20000000000005" y="592.1" type="line"/>
      <point x="355.20000000000005" y="677.9000000000001" type="line" smooth="yes"/>
      <point x="355.20000000000005" y="731.05"/>
      <point x="327.55" y="751.9000000000001"/>
      <point x="278.3" y="751.9000000000001" type="curve" smooth="yes"/>
      <point x="108.15" y="751.9000000000001" type="line" smooth="yes"/>
      <point x="69.15" y="751.9000000000001"/>
      <point x="47.6" y="733.2"/>
      <point x="47.6" y="692.25" type="curve" smooth="yes"/>
      <point x="47.6" y="566.8" type="line" smooth="yes"/>
      <point x="47.6" y="536.5500000000001"/>
      <point x="58.2" y="525.6500000000001"/>
      <point x="77.35000000000001" y="514.6500000000001" type="curve" smooth="yes"/>
      <point x="252.90000000000003" y="407.0" type="line"/>
      <point x="252.90000000000003" y="84.45" type="line"/>
      <point x="147.7" y="84.45" type="line"/>
      <point x="147.7" y="353.40000000000003" type="line"/>
      <point x="268.75" y="369.05000000000007" type="line"/>
      <point x="268.75" y="453.95000000000005" type="line"/>
      <point x="97.65" y="431.55000000000007" type="line" smooth="yes"/>
      <point x="60.1" y="426.3"/>
      <point x="40.400000000000006" y="402.20000000000005"/>
      <point x="40.400000000000006" y="362.35" type="curve"/>
      <point x="40.400000000000006" y="62.95" type="line" smooth="yes"/>
      <point x="40.400000000000006" y="17.05"/>
      <point x="61.85000000000001" y="0.0"/>
    </contour>
  </outline>
</glyph>
<glyph name="epsilon" format="1">
  <advance width="397.35"/>
  <unicode hex="03B5"/>
  <outline>
    <contour>
      <point x="357.5" y="72.55000000000001" type="curve" smooth="yes"/>
      <point x="357.5" y="176.05" type="line"/>
      <point x="249.85000000000002" y="176.05" type="line"/>
      <point x="249.85000000000002" y="104.4" type="line" smooth="yes"/>
      <point x="249.85000000000002" y="89.75"/>
      <point x="244.55" y="84.0"/>
      <point x="227.8" y="84.0" type="curve"/>
      <point x="148.60000000000002" y="84.0" type="line"/>
      <point x="148.60000000000002" y="171.8" type="line"/>
      <point x="261.1" y="240.65" type="line"/>
      <point x="261.1" y="268.95000000000005" type="line"/>
      <point x="149.15" y="337.80000000000007" type="line"/>
      <point x="149.15" y="409.0" type="line"/>
      <point x="230.25" y="409.0" type="line" smooth="yes"/>
      <point x="245.10000000000002" y="409.0"/>
      <point x="250.40000000000003" y="402.35"/>
      <point x="250.40000000000003" y="390.5" type="curve" smooth="yes"/>
      <point x="250.40000000000003" y="333.1" type="line"/>
      <point x="357.5" y="333.1" type="line"/>
      <point x="357.5" y="418.35" type="line" smooth="yes"/>
      <point x="357.5" y="471.85"/>
      <point x="331.25" y="493.0"/>
      <point x="280.70000000000005" y="493.0" type="curve" smooth="yes"/>
      <point x="103.15" y="493.0" type="line" smooth="yes"/>
      <point x="57.650000000000006" y="493.0"/>
      <point x="40.400000000000006" y="470.20000000000005"/>
      <point x="40.400000000000006" y="433.15" type="curve" smooth="yes"/>
      <point x="40.400000000000006" y="353.55" type="line" smooth="yes"/>
      <point x="40.400000000000006" y="319.55"/>
      <point x="44.75000000000001" y="301.6"/>
      <point x="76.20000000000002" y="282.85" type="curve" smooth="yes"/>
      <point x="135.85000000000002" y="249.40000000000003" type="line"/>
      <point x="75.65" y="216.4" type="line" smooth="yes"/>
      <point x="50.75" y="201.65"/>
      <point x="40.400000000000006" y="182.9"/>
      <point x="40.400000000000006" y="145.70000000000002" type="curve" smooth="yes"/>
      <point x="40.400000000000006" y="62.050000000000004" type="line" smooth="yes"/>
      <point x="40.400000000000006" y="18.4"/>
      <point x="60.95" y="0.0"/>
      <point x="103.70000000000002" y="0.0" type="curve"/>
      <point x="282.05" y="0.0" type="line" smooth="yes"/>
      <point x="339.45000000000005" y="0.0"/>
      <point x="357.5" y="31.450000000000003"/>
    </contour>
  </outline>
</glyph>
<glyph name="zeta" format="1">
  <advance width="377.15000000000003"/>
  <unicode hex="03B6"/>
  <outline>
    <contour>
      <point x="250.3" y="-177.25" type="line"/>
      <point x="359.1" y="-177.25" type="line"/>
      <point x="359.1" y="5.5" type="line" smooth="yes"/>
      <point x="359.1" y="32.75000000000001"/>
      <point x="345.15" y="47.900000000000006"/>
      <point x="320.0" y="55.8" type="curve" smooth="yes"/>
      <point x="151.75" y="110.80000000000001" type="line"/>
      <point x="151.75" y="222.3" type="line"/>
      <point x="375.15000000000003" y="687.75" type="line"/>
      <point x="375.15000000000003" y="764.0" type="line"/>
      <point x="54.25" y="764.0" type="line"/>
      <point x="54.25" y="663.4000000000001" type="line"/>
      <point x="237.0" y="663.4000000000001" type="line"/>
      <point x="63.50000000000001" y="291.80000000000007" type="line" smooth="yes"/>
      <point x="50.0" y="263.8"/>
      <point x="40.400000000000006" y="252.9"/>
      <point x="40.400000000000006" y="220.55" type="curve" smooth="yes"/>
      <point x="40.400000000000006" y="79.4" type="line" smooth="yes"/>
      <point x="40.400000000000006" y="45.55"/>
      <point x="49.7" y="30.400000000000006"/>
      <point x="76.65" y="22.05" type="curve" smooth="yes"/>
      <point x="250.3" y="-33.400000000000006" type="line"/>
    </contour>
  </outline>
</glyph>
<glyph name="theta" format="1">
  <advance width="405.55"/>
  <unicode hex="03B8"/>
  <outline>
    <contour>
      <point x="365.15" y="61.300000000000004" type="curve"/>
      <point x="365.15" y="702.7" type="line" smooth="yes"/>
      <point x="365.15" y="744.2"/>
      <point x="344.9" y="764.0"/>
      <point x="302.95000000000005" y="764.0" type="curve" smooth="yes"/>
      <point x="103.05000000000001" y="764.0" type="line" smooth="yes"/>
      <point x="60.2" y="764.0"/>
      <point x="40.400000000000006" y="744.2"/>
      <point x="40.400000000000006" y="702.7" type="curve" smooth="yes"/>
      <point x="40.400000000000006" y="61.300000000000004" type="line" smooth="yes"/>
      <point x="40.400000000000006" y="19.8"/>
      <point x="60.2" y="0.0"/>
      <point x="103.05000000000001" y="0.0" type="curve" smooth="yes"/>
      <point x="302.95000000000005" y="0.0" type="line" smooth="yes"/>
      <point x="344.9" y="0.0"/>
      <point x="365.15" y="19.8"/>
    </contour>
    <contour>
      <point x="255.60000000000002" y="92.55000000000001" type="line"/>
      <point x="149.95" y="92.55000000000001" type="line"/>
      <point x="149.95" y="671.45" type="line"/>
      <point x="255.60000000000002" y="671.45" type="line"/>
    </contour>
    <contour>
      <point x="314.9" y="326.35" type="line"/>
      <point x="314.9" y="428.85" type="line"/>
      <point x="94.55000000000001" y="428.85" type="line"/>
      <point x="94.55000000000001" y="326.35" type="line"/>
    </contour>
  </outline>
</glyph>
<glyph name="iota" format="1">
  <advance width="234.5"/>
  <unicode hex="03B9"/>
  <outline>
    <contour>
      <point x="213.05" y="0.0" type="line"/>
      <point x="102.60000000000001" y="0.0" type="line" smooth="yes"/>
      <point x="60.2" y="0.0"/>
      <point x="40.400000000000006" y="19.8"/>
      <point x="40.400000000000006" y="61.300000000000004" type="curve"/>
      <point x="40.400000000000006" y="493.0" type="line"/>
      <point x="151.20000000000002" y="493.0" type="line"/>
      <point x="151.20000000000002" y="94.80000000000001" type="line"/>
      <point x="213.05" y="94.80000000000001" type="line"/>
    </contour>
  </outline>
</glyph>
<glyph name="kappa" format="1">
  <advance width="377.30000000000007"/>
  <unicode hex="03BA"/>
  <outline>
    <contour>
      <point x="369.5" y="0.0" type="line"/>
      <point x="249.90000000000003" y="0.0" type="line"/>
      <point x="151.75" y="226.25000000000003" type="line"/>
      <point x="151.75" y="0.0" type="line"/>
      <point x="40.400000000000006" y="0.0" type="line"/>
      <point x="40.400000000000006" y="493.0" type="line"/>
      <point x="151.75" y="493.0" type="line"/>
      <point x="151.75" y="305.1" type="line"/>
      <point x="240.45" y="493.0" type="line"/>
      <point x="358.15" y="493.0" type="line"/>
      <point x="358.15" y="491.0" type="line"/>
      <point x="243.10000000000002" y="267.05" type="line"/>
      <point x="369.5" y="2.0" type="line"/>
    </contour>
  </outline>
</glyph>
<glyph name="lambda" format="1">
  <advance width="424.45000000000005"/>
  <unicode hex="03BB"/>
  <outline>
    <contour>
      <point x="297.45000000000005" y="0.0" type="line"/>
      <point x="409.70000000000005" y="0.0" type="line"/>
      <point x="211.65" y="709.3" type="line" smooth="yes"/>
      <point x="200.95" y="747.5"/>
      <point x="184.70000000000002" y="764.0"/>
      <point x="142.3" y="764.0" type="curve" smooth="yes"/>
      <point x="53.95" y="764.0" type="line"/>
      <point x="53.95" y="669.2" type="line"/>
      <point x="118.2" y="669.2" type="line"/>
    </contour>
    <contour>
      <point x="175.90000000000003" y="516.25" type="line"/>
      <point x="9.25" y="0.0" type="line"/>
      <point x="126.30000000000001" y="0.0" type="line"/>
      <point x="224.15" y="352.1" type="line"/>
    </contour>
  </outline>
</glyph>
<glyph name="xi" format="1">
  <advance width="377.1"/>
  <unicode hex="03BE"/>
  <outline>
    <contour>
      <point x="253.0" y="-177.25" type="line"/>
      <point x="361.8" y="-177.25" type="line"/>
      <point x="361.8" y="6.6" type="line" smooth="yes"/>
      <point x="361.8" y="30.000000000000004"/>
      <point x="348.95000000000005" y="47.35"/>
      <point x="324.35" y="55.25" type="curve" smooth="yes"/>
      <point x="149.95" y="110.80000000000001" type="line"/>
      <point x="149.95" y="275.45" type="line"/>
      <point x="284.85" y="356.1" type="line"/>
      <point x="284.85" y="381.65" type="line"/>
      <point x="150.5" y="461.85" type="line"/>
      <point x="150.5" y="654.6500000000001" type="line"/>
      <point x="232.70000000000002" y="654.6500000000001" type="line"/>
      <point x="247.10000000000002" y="654.6500000000001"/>
      <point x="252.85000000000002" y="648.9000000000001"/>
      <point x="252.85000000000002" y="635.1500000000001" type="curve" smooth="yes"/>
      <point x="252.85000000000002" y="514.5" type="line"/>
      <point x="360.5" y="514.5" type="line"/>
      <point x="360.5" y="674.85" type="line" smooth="yes"/>
      <point x="360.5" y="726.85"/>
      <point x="330.65" y="751.9000000000001"/>
      <point x="280.1" y="751.9000000000001" type="curve"/>
      <point x="100.5" y="751.9000000000001" type="line" smooth="yes"/>
      <point x="63.60000000000001" y="751.9000000000001"/>
      <point x="42.85" y="739.75"/>
      <point x="42.85" y="700.5" type="curve" smooth="yes"/>
      <point x="42.85" y="457.1" type="line" smooth="yes"/>
      <point x="42.85" y="421.65000000000003"/>
      <point x="49.650000000000006" y="415.20000000000005"/>
      <point x="74.85000000000001" y="403.05000000000007" type="curve" smooth="yes"/>
      <point x="141.35000000000002" y="369.15000000000003" type="line"/>
      <point x="75.75" y="336.6" type="line" smooth="yes"/>
      <point x="48.900000000000006" y="323.80000000000007"/>
      <point x="40.400000000000006" y="308.95000000000005"/>
      <point x="40.400000000000006" y="273.5" type="curve" smooth="yes"/>
      <point x="40.400000000000006" y="78.4" type="line" smooth="yes"/>
      <point x="40.400000000000006" y="39.05"/>
      <point x="52.150000000000006" y="29.950000000000003"/>
      <point x="76.65" y="22.05" type="curve" smooth="yes"/>
      <point x="253.0" y="-33.400000000000006" type="line"/>
    </contour>
  </outline>
</glyph>
<glyph name="sigmafinal" format="1">
  <advance width="400.05"/>
  <unicode hex="03C2"/>
  <outline>
    <contour>
      <point x="40.400000000000006" y="441.05000000000007" type="curve" smooth="yes"/>
      <point x="40.400000000000006" y="77.75" type="line" smooth="yes"/>
      <point x="40.400000000000006" y="45.55"/>
      <point x="49.7" y="30.400000000000006"/>
      <point x="76.65" y="22.05" type="curve" smooth="yes"/>
      <point x="250.3" y="-33.400000000000006" type="line"/>
      <point x="250.3" y="-177.25" type="line"/>
      <point x="359.1" y="-177.25" type="line"/>
      <point x="359.1" y="5.5" type="line" smooth="yes"/>
      <point x="359.1" y="32.75000000000001"/>
      <point x="345.15" y="47.900000000000006"/>
      <point x="320.0" y="55.8" type="curve" smooth="yes"/>
      <point x="149.95" y="110.80000000000001" type="line"/>
      <point x="149.95" y="400.45000000000005" type="line"/>
      <point x="231.15" y="400.45000000000005" type="line" smooth="yes"/>
      <point x="245.20000000000005" y="400.45000000000005"/>
      <point x="249.85000000000002" y="393.70000000000005"/>
      <point x="249.85000000000002" y="381.3" type="curve"/>
      <point x="249.85000000000002" y="315.1" type="line"/>
      <point x="358.85" y="315.1" type="line"/>
      <point x="358.85" y="415.25" type="line" smooth="yes"/>
      <point x="358.85" y="470.85"/>
      <point x="335.6" y="493.0"/>
      <point x="280.5" y="493.0" type="curve" smooth="yes"/>
      <point x="94.25" y="493.0" type="line" smooth="yes"/>
      <point x="56.900000000000006" y="493.0"/>
      <point x="40.400000000000006" y="476.5"/>
    </contour>
  </outline>
</glyph>
<glyph name="sigma" format="1">
  <advance width="405.6"/>
  <unicode hex="03C3"/>
  <outline>
    <contour>
      <point x="384.15000000000003" y="493.0" type="line"/>
      <point x="116.15" y="493.0" type="line" smooth="yes"/>
      <point x="68.4" y="493.0"/>
      <point x="40.400000000000006" y="473.0"/>
      <point x="40.400000000000006" y="420.40000000000003" type="curve" smooth="yes"/>
      <point x="40.400000000000006" y="61.85000000000001" type="line" smooth="yes"/>
      <point x="40.400000000000006" y="22.0"/>
      <point x="58.0" y="0.0"/>
      <point x="102.5" y="0.0" type="curve" smooth="yes"/>
      <point x="287.70000000000005" y="0.0" type="line" smooth="yes"/>
      <point x="354.25" y="0.0"/>
      <point x="371.75" y="33.35"/>
      <point x="366.05" y="102.2" type="curve" smooth="yes"/>
      <point x="342.8" y="398.20000000000005" type="line"/>
      <point x="384.15000000000003" y="398.20000000000005" type="line"/>
    </contour>
    <contour>
      <point x="149.95" y="92.55000000000001" type="line"/>
      <point x="149.95" y="398.20000000000005" type="line"/>
      <point x="244.20000000000002" y="398.20000000000005" type="line"/>
      <point x="255.60000000000002" y="123.55000000000001" type="line" smooth="yes"/>
      <point x="256.6" y="98.65"/>
      <point x="251.2" y="92.55000000000001"/>
      <point x="235.0" y="92.55000000000001" type="curve" smooth="yes"/>
    </contour>
  </outline>
</glyph>
<glyph name="tau" format="1">
  <advance width="305.5"/>
  <unicode hex="03C4"/>
  <outline>
    <contour>
      <point x="264.90000000000003" y="0.0" type="line"/>
      <point x="264.90000000000003" y="94.80000000000001" type="line"/>
      <point x="196.8" y="94.80000000000001" type="line"/>
      <point x="196.8" y="398.20000000000005" type="line"/>
      <point x="284.05" y="398.20000000000005" type="line"/>
      <point x="284.05" y="493.0" type="line"/>
      <point x="14.15" y="493.0" type="line"/>
      <point x="14.15" y="398.20000000000005" type="line"/>
      <point x="86.0" y="398.20000000000005" type="line"/>
      <point x="86.0" y="62.95" type="line" smooth="yes"/>
      <point x="86.0" y="23.1"/>
      <point x="102.5" y="0.0"/>
      <point x="148.2" y="0.0" type="curve" smooth="yes"/>
    </contour>
  </outline>
</glyph>
<glyph name="phi" format="1">
  <advance width="617.1500000000001"/>
  <unicode hex="03C6"/>
  <outline>
    <contour>
      <point x="252.90000000000003" y="627.0500000000001" type="line"/>
      <point x="252.90000000000003" y="493.0" type="line"/>
      <point x="127.35000000000002" y="493.0" type="line"/>
      <point x="67.35" y="493.0"/>
      <point x="40.400000000000006" y="467.5"/>
      <point x="40.400000000000006" y="411.85" type="curve"/>
      <point x="40.400000000000006" y="81.15" type="line"/>
      <point x="40.400000000000006" y="25.5"/>
      <point x="67.9" y="0.0"/>
      <point x="127.9" y="0.0" type="curve"/>
      <point x="252.90000000000003" y="0.0" type="line"/>
      <point x="252.90000000000003" y="-180.0" type="line"/>
      <point x="364.25" y="-180.0" type="line"/>
      <point x="364.25" y="0.0" type="line"/>
      <point x="489.25" y="0.0" type="line"/>
      <point x="549.25" y="0.0"/>
      <point x="576.75" y="25.5"/>
      <point x="576.75" y="81.15" type="curve"/>
      <point x="576.75" y="412.3" type="line"/>
      <point x="576.75" y="467.95000000000005"/>
      <point x="549.8" y="493.0"/>
      <point x="489.8" y="493.0" type="curve"/>
      <point x="364.25" y="493.0" type="line"/>
      <point x="364.25" y="627.0500000000001" type="line"/>
    </contour>
    <contour>
      <point x="151.75" y="114.15" type="curve" smooth="yes"/>
      <point x="151.75" y="378.85" type="line" smooth="yes"/>
      <point x="151.75" y="395.25"/>
      <point x="156.95" y="400.45000000000005"/>
      <point x="173.90000000000003" y="400.45000000000005" type="curve" smooth="yes"/>
      <point x="252.90000000000003" y="400.45000000000005" type="line"/>
      <point x="252.90000000000003" y="92.55000000000001" type="line"/>
      <point x="173.90000000000003" y="92.55000000000001" type="line" smooth="yes"/>
      <point x="156.95" y="92.55000000000001"/>
      <point x="151.75" y="97.75"/>
    </contour>
    <contour>
      <point x="465.4000000000001" y="114.15" type="line" smooth="yes"/>
      <point x="465.4000000000001" y="97.75"/>
      <point x="460.20000000000005" y="92.55000000000001"/>
      <point x="443.25" y="92.55000000000001" type="curve" smooth="yes"/>
      <point x="364.25" y="92.55000000000001" type="line"/>
      <point x="364.25" y="400.45000000000005" type="line"/>
      <point x="443.25" y="400.45000000000005" type="line" smooth="yes"/>
      <point x="460.20000000000005" y="400.45000000000005"/>
      <point x="465.4000000000001" y="395.25"/>
      <point x="465.4000000000001" y="378.85" type="curve" smooth="yes"/>
    </contour>
  </outline>
</glyph>
<glyph name="chi" format="1">
  <advance width="391.15000000000003"/>
  <unicode hex="03C7"/>
  <outline>
    <contour>
      <point x="380.6" y="-189.0" type="line"/>
      <point x="377.45000000000005" y="-178.45" type="line"/>
      <point x="253.8" y="159.45" type="line"/>
      <point x="369.85" y="484.70000000000005" type="line"/>
      <point x="372.55" y="493.0" type="line"/>
      <point x="264.1" y="493.0" type="line"/>
      <point x="198.60000000000002" y="271.75" type="line"/>
      <point x="127.35000000000002" y="493.0" type="line"/>
      <point x="12.750000000000002" y="493.0" type="line"/>
      <point x="14.100000000000001" y="487.85" type="line"/>
      <point x="135.15" y="157.2" type="line"/>
      <point x="15.95" y="-175.75" type="line"/>
      <point x="11.45" y="-189.0" type="line"/>
      <point x="120.45" y="-189.0" type="line"/>
      <point x="190.9" y="44.900000000000006" type="line"/>
      <point x="266.0" y="-189.0" type="line"/>
    </contour>
  </outline>
</glyph>
<glyph name="psi" format="1">
  <advance width="612.2"/>
  <unicode hex="03C8"/>
  <outline>
    <contour>
      <point x="250.70000000000005" y="-180.0" type="line"/>
      <point x="361.5" y="-180.0" type="line"/>
      <point x="361.5" y="0.0" type="line"/>
      <point x="489.25" y="0.0" type="line" smooth="yes"/>
      <point x="547.6" y="0.0"/>
      <point x="571.8" y="27.700000000000003"/>
      <point x="571.8" y="80.05000000000001" type="curve" smooth="yes"/>
      <point x="571.8" y="493.0" type="line"/>
      <point x="461.0" y="493.0" type="line"/>
      <point x="461.0" y="114.15" type="line" smooth="yes"/>
      <point x="461.0" y="97.75"/>
      <point x="455.25" y="92.55000000000001"/>
      <point x="438.30000000000007" y="92.55000000000001" type="curve" smooth="yes"/>
      <point x="361.5" y="92.55000000000001" type="line"/>
      <point x="361.5" y="619.3500000000001" type="line"/>
      <point x="250.70000000000005" y="619.3500000000001" type="line"/>
      <point x="250.70000000000005" y="92.55000000000001" type="line"/>
      <point x="173.35000000000002" y="92.55000000000001" type="line" smooth="yes"/>
      <point x="156.4" y="92.55000000000001"/>
      <point x="151.20000000000002" y="97.75"/>
      <point x="151.20000000000002" y="114.15" type="curve" smooth="yes"/>
      <point x="151.20000000000002" y="493.0" type="line"/>
      <point x="40.400000000000006" y="493.0" type="line"/>
      <point x="40.400000000000006" y="80.05000000000001" type="line" smooth="yes"/>
      <point x="40.400000000000006" y="24.400000000000002"/>
      <point x="69.0" y="0.0"/>
      <point x="126.25" y="0.0" type="curve"/>
      <point x="250.70000000000005" y="0.0" type="line"/>
    </contour>
  </outline>
</glyph>
<glyph name="omega" format="1">
  <advance width="581.1"/>
  <unicode hex="03C9"/>
  <outline>
    <contour>
      <point x="252.95000000000002" y="50.1" type="curve"/>
      <point x="290.55" y="146.60000000000002" type="line"/>
      <point x="328.15000000000003" y="50.1" type="line"/>
      <point x="343.1" y="16.5"/>
      <point x="361.5" y="0.0"/>
      <point x="402.55000000000007" y="0.0" type="curve" smooth="yes"/>
      <point x="472.05" y="0.0" type="line" smooth="yes"/>
      <point x="518.45" y="0.0"/>
      <point x="540.7" y="22.200000000000003"/>
      <point x="540.7" y="68.25" type="curve" smooth="yes"/>
      <point x="540.7" y="411.5" type="line" smooth="yes"/>
      <point x="540.7" y="474.35"/>
      <point x="507.9" y="493.0"/>
      <point x="452.95000000000005" y="493.0" type="curve"/>
      <point x="359.1" y="493.0" type="line"/>
      <point x="359.1" y="400.45000000000005" type="line"/>
      <point x="431.70000000000005" y="400.45000000000005" type="line"/>
      <point x="431.70000000000005" y="92.55000000000001" type="line"/>
      <point x="395.75" y="92.55000000000001" type="line"/>
      <point x="304.70000000000005" y="333.70000000000005" type="line"/>
      <point x="276.40000000000003" y="333.70000000000005" type="line"/>
      <point x="185.35000000000002" y="92.55000000000001" type="line"/>
      <point x="149.4" y="92.55000000000001" type="line"/>
      <point x="149.4" y="400.45000000000005" type="line"/>
      <point x="222.0" y="400.45000000000005" type="line"/>
      <point x="222.0" y="493.0" type="line"/>
      <point x="126.80000000000001" y="493.0" type="line"/>
      <point x="67.35" y="493.0"/>
      <point x="40.400000000000006" y="468.5"/>
      <point x="40.400000000000006" y="411.95000000000005" type="curve" smooth="yes"/>
      <point x="40.400000000000006" y="68.25" type="line" smooth="yes"/>
      <point x="40.400000000000006" y="22.200000000000003"/>
      <point x="62.650000000000006" y="0.0"/>
      <point x="109.05000000000001" y="0.0" type="curve" smooth="yes"/>
      <point x="175.40000000000003" y="0.0" type="line" smooth="yes"/>
      <point x="216.0" y="0.0"/>
      <point x="236.65000000000003" y="14.25"/>
    </contour>
  </outline>
</glyph>
<glyph name="quoteright" format="1">
  <advance width="196"/>
  <unicode hex="2019"/>
  <unicode hex="02BC"/>
  <outline>
    <contour>
      <point x="171" y="764" type="line"/>
      <point x="104" y="525" type="line"/>
      <point x="31" y="525" type="line"/>
      <point x="56" y="764" type="line"/>
    </contour>
  </outline>
</glyph>
<glyph name="ellipsis" format="1">
  <advance width="553"/>
  <unicode hex="2026"/>
  <outline>
    <contour>
      <point x="515" y="0" type="line"/>
      <point x="405" y="0" type="line"/>
      <point x="405" y="118" type="line"/>
      <point x="515" y="118" type="line"/>
    </contour>
    <contour>
      <point x="331" y="0" type="line"/>
      <point x="221" y="0" type="line"/>
      <point x="221" y="118" type="line"/>
      <point x="331" y="118" type="line"/>
    </contour>
    <contour>
      <point x="147" y="0" type="line"/>
      <point x="37" y="0" type="line"/>
      <point x="37" y="118" type="line"/>
      <point x="147" y="118" type="line"/>
    </contour>
  </outline>
</glyph>
<glyph name="f_f" format="1">
  <advance width="491"/>
  <unicode hex="FB00"/>
  <outline>
    <contour>
      <point x="490" y="667" type="line"/>
      <point x="408" y="667" type="line"/>
      <point x="408" y="493" type="line"/>
      <point x="479" y="493" type="line"/>
      <point x="479" y="398" type="line"/>
      <point x="408" y="398" type="line"/>
      <point x="408" y="0" type="line"/>
      <point x="297" y="0" type="line"/>
      <point x="297" y="398" type="line"/>
      <point x="175" y="398" type="line"/>
      <point x="175" y="0" type="line"/>
      <point x="64" y="0" type="line"/>
      <point x="64" y="398" type="line"/>
      <point x="13" y="398" type="line"/>
      <point x="13" y="493" type="line"/>
      <point x="64" y="493" type="line"/>
      <point x="64" y="703" type="line" smooth="yes"/>
      <point x="64" y="744"/>
      <point x="84" y="764"/>
      <point x="126" y="764" type="curve" smooth="yes"/>
      <point x="257" y="764" type="line"/>
      <point x="257" y="667" type="line"/>
      <point x="175" y="667" type="line"/>
      <point x="175" y="493" type="line"/>
      <point x="297" y="493" type="line"/>
      <point x="297" y="703" type="line" smooth="yes"/>
      <point x="297" y="744"/>
      <point x="317" y="764"/>
      <point x="360" y="764" type="curve" smooth="yes"/>
      <point x="490" y="764" type="line"/>
    </contour>
  </outline>
</glyph>
<glyph name="f_f_i" format="1">
  <advance width="683"/>
  <unicode hex="FB03"/>
  <outline>
    <contour>
      <point x="641" y="0" type="line"/>
      <point x="530" y="0" type="line"/>
      <point x="530" y="398" type="line"/>
      <point x="408" y="398" type="line"/>
      <point x="408" y="0" type="line"/>
      <point x="297" y="0" type="line"/>
      <point x="297" y="398" type="line"/>
      <point x="175" y="398" type="line"/>
      <point x="175" y="0" type="line"/>
      <point x="64" y="0" type="line"/>
      <point x="64" y="398" type="line"/>
      <point x="13" y="398" type="line"/>
      <point x="13" y="493" type="line"/>
      <point x="64" y="493" type="line"/>
      <point x="64" y="703" type="line" smooth="yes"/>
      <point x="64" y="744"/>
      <point x="84" y="764"/>
      <point x="126" y="764" type="curve" smooth="yes"/>
      <point x="257" y="764" type="line"/>
      <point x="257" y="667" type="line"/>
      <point x="175" y="667" type="line"/>
      <point x="175" y="493" type="line"/>
      <point x="297" y="493" type="line"/>
      <point x="297" y="703" type="line" smooth="yes"/>
      <point x="297" y="744"/>
      <point x="317" y="764"/>
      <point x="360" y="764" type="curve" smooth="yes"/>
      <point x="579" y="764" type="line" smooth="yes"/>
      <point x="621" y="764"/>
      <point x="641" y="744"/>
      <point x="641" y="703" type="curve" smooth="yes"/>
      <point x="641" y="564" type="line"/>
      <point x="530" y="564" type="line"/>
      <point x="530" y="667" type="line"/>
      <point x="408" y="667" type="line"/>
      <point x="408" y="493" type="line"/>
      <point x="641" y="493" type="line"/>
    </contour>
  </outline>
</glyph>
<glyph name="A.salt" format="1">
  <advance width="465"/>
  <outline>
    <contour>
      <point x="420" y="0" type="line"/>
      <point x="306" y="0" type="line"/>
      <point x="306" y="305" type="line"/>
      <point x="160" y="305" type="line"/>
      <point x="160" y="0" type="line"/>
      <point x="46" y="0" type="line"/>
      <point x="46" y="694" type="line" smooth="yes"/>
      <point x="46" y="739"/>
      <point x="70" y="764"/>
      <point x="115" y="764" type="curve" smooth="yes"/>
      <point x="350" y="764" type="line" smooth="yes"/>
      <point x="395" y="764"/>
      <point x="420" y="739"/>
      <point x="420" y="694" type="curve" smooth="yes"/>
    </contour>
    <contour>
      <point x="306" y="402" type="line"/>
      <point x="306" y="666" type="line"/>
      <point x="160" y="666" type="line"/>
      <point x="160" y="402" type="line"/>
    </contour>
    <contour>
      <point x="232.5" y="764" type="move" name="top"/>
    </contour>
    <contour>
      <point x="420" y="0" type="move" name="ogonek"/>
    </contour>
  </outline>
</glyph>
<glyph name="ampersand.salt" format="1">
  <advance width="525"/>
  <outline>
    <contour>
      <point x="501" y="0" type="line"/>
      <point x="388" y="0" type="line"/>
      <point x="339" y="94" type="line"/>
      <point x="312" y="38" type="line" smooth="yes"/>
      <point x="298" y="9"/>
      <point x="285" y="0"/>
      <point x="248" y="0" type="curve" smooth="yes"/>
      <point x="114" y="0" type="line" smooth="yes"/>
      <point x="69" y="0"/>
      <point x="44" y="24"/>
      <point x="44" y="69" type="curve" smooth="yes"/>
      <point x="44" y="270" type="line" smooth="yes"/>
      <point x="44" y="302"/>
      <point x="51" y="315"/>
      <point x="70" y="335" type="curve" smooth="yes"/>
      <point x="159" y="430" type="line"/>
      <point x="103" y="536" type="line" smooth="yes"/>
      <point x="91" y="558"/>
      <point x="84" y="574"/>
      <point x="84" y="601" type="curve" smooth="yes"/>
      <point x="84" y="694" type="line" smooth="yes"/>
      <point x="84" y="738"/>
      <point x="110" y="764"/>
      <point x="154" y="764" type="curve" smooth="yes"/>
      <point x="343" y="764" type="line" smooth="yes"/>
      <point x="388" y="764"/>
      <point x="413" y="738"/>
      <point x="413" y="694" type="curve" smooth="yes"/>
      <point x="413" y="581" type="line"/>
      <point x="302" y="581" type="line"/>
      <point x="302" y="668" type="line"/>
      <point x="194" y="668" type="line"/>
      <point x="194" y="575" type="line"/>
      <point x="338" y="303" type="line"/>
      <point x="384" y="396" type="line"/>
      <point x="494" y="396" type="line"/>
      <point x="394" y="199" type="line"/>
    </contour>
    <contour>
      <point x="283" y="198" type="line"/>
      <point x="211" y="333" type="line"/>
      <point x="154" y="268" type="line"/>
      <point x="154" y="96" type="line"/>
      <point x="232" y="96" type="line"/>
    </contour>
  </outline>
</glyph>
<glyph name="caroncmb.vert" format="1">
  <advance width="0"/>
  <outline>
    <contour>
      <point x="140" y="732" type="line"/>
      <point x="73" y="493" type="line"/>
      <point x="0" y="493" type="line"/>
      <point x="25" y="732" type="line"/>
    </contour>
    <contour>
      <point x="0.0" y="493.0" type="move" name="_caron.vert"/>
    </contour>
  </outline>
</glyph>
